<?xml version="1.0" encoding="UTF-8"?>
<svg version="1.1" xmlns="http://www.w3.org/2000/svg" width="1024" height="1024">
<path d="M0 0 C337.92 0 675.84 0 1024 0 C1024 337.92 1024 675.84 1024 1024 C686.08 1024 348.16 1024 0 1024 C0 686.08 0 348.16 0 0 Z " fill="#131213" transform="translate(0,0)"/>
<path d="M0 0 C11.90922112 7.9024634 23.05536026 16.82532247 34 26 C34.63486328 26.53044922 35.26972656 27.06089844 35.92382812 27.60742188 C42.35125097 32.99327261 48.66139405 38.39357157 54.44921875 44.4765625 C56.12721691 46.22014627 56.12721691 46.22014627 59 48 C57.48793343 51.78866119 55.3032033 53.62849827 52.125 56.125 C50.65740234 57.28515625 50.65740234 57.28515625 49.16015625 58.46875 C48.64469238 58.87609375 48.12922852 59.2834375 47.59814453 59.703125 C45.94413633 61.04533269 44.34292541 62.43413309 42.74609375 63.84375 C42.21419434 64.30765137 41.68229492 64.77155273 41.13427734 65.24951172 C39.62680255 66.56872778 38.12765727 67.89744375 36.62890625 69.2265625 C34 71 34 71 32.0546875 70.81591797 C29.58077808 69.83352666 28.33029771 68.64299346 26.49609375 66.71875 C25.84374756 66.04618164 25.19140137 65.37361328 24.51928711 64.68066406 C23.83229736 63.96104492 23.14530762 63.24142578 22.4375 62.5 C16.26657879 56.18673167 9.97096166 50.42828688 3 45 C1.83757423 44.05095009 0.67756909 43.09893041 -0.48046875 42.14453125 C-8.97018615 35.17835227 -17.71063068 28.85586711 -27 23 C-27.61343262 22.61215332 -28.22686523 22.22430664 -28.85888672 21.82470703 C-52.20641391 7.17491689 -84.38459962 -11.50129404 -112.91015625 -5.375 C-122.2887867 -2.12799347 -129.00391282 4.82596795 -133.7265625 13.37109375 C-142.73790279 31.97425943 -144.422243 52.28376543 -144.375 72.625 C-144.37478851 73.47216583 -144.37457703 74.31933167 -144.37435913 75.19216919 C-144.3351174 91.06721752 -142.89352408 106.36794117 -140 122 C-139.80744629 123.05703125 -139.61489258 124.1140625 -139.41650391 125.203125 C-137.1676099 137.2874076 -134.31825337 149.15948564 -130.87939453 160.96069336 C-130.63431152 161.81284424 -130.38922852 162.66499512 -130.13671875 163.54296875 C-129.80740356 164.6570813 -129.80740356 164.6570813 -129.47143555 165.79370117 C-128.94696429 168.24820491 -128.91995906 170.49727646 -129 173 C-127.85229126 172.69147095 -127.85229126 172.69147095 -126.68139648 172.37670898 C-100.06659502 165.29657115 -73.15767999 159.98151341 -45.875 156.1875 C-44.62251465 156.01299316 -44.62251465 156.01299316 -43.34472656 155.83496094 C-38.99141145 155.26849295 -34.68375796 154.91457693 -30.296875 154.734375 C-20.73089828 154.61334671 -20.73089828 154.61334671 -12.19140625 151.00390625 C-10.14228481 148.44350304 -8.58621816 145.8664653 -7 143 C-5.7204714 141.30788871 -4.4072782 139.64073325 -3.0625 138 C-2.07636719 136.76636719 -2.07636719 136.76636719 -1.0703125 135.5078125 C1.79462734 132.03745141 4.80095981 128.70850705 7.8359375 125.38671875 C9.83015612 123.18731879 11.76255607 120.94740113 13.6875 118.6875 C16.54514025 115.39587233 19.56607156 112.68013927 23 110 C23.00286449 113.08855242 23.00341305 116.17707144 23.00048828 119.265625 C23.0001791 121.6302164 23.00563925 123.99482157 23.01904297 126.359375 C23.0627522 143.71965456 23.0722505 163.71902328 10.75 177.4375 C9.98558594 178.17097656 9.22117187 178.90445313 8.43359375 179.66015625 C5.61871416 182.36659746 3.20796099 185.30262698 0.8125 188.375 C0.35834717 188.95668945 -0.09580566 189.53837891 -0.5637207 190.13769531 C-22.41477273 218.48135242 -40.62972889 249.77546436 -58 281 C-58.69628564 282.24414254 -59.39257492 283.48828304 -60.08886719 284.73242188 C-61.97768926 288.11435201 -63.84501545 291.50752585 -65.70046997 294.90786743 C-66.43639567 296.25104947 -67.17776141 297.59126651 -67.92477417 298.92831421 C-68.97240539 300.80721259 -69.99817454 302.69656462 -71.01953125 304.58984375 C-71.61870361 305.68159912 -72.21787598 306.77335449 -72.83520508 307.89819336 C-74.21412707 311.57021262 -74.10145838 313.26431242 -73 317 C-71.68895742 319.96435966 -71.68895742 319.96435966 -69.96484375 322.9453125 C-69.32877197 324.09 -68.6927002 325.2346875 -68.03735352 326.4140625 C-67.33771665 327.65121946 -66.63775654 328.88819368 -65.9375 330.125 C-65.21154609 331.42153246 -64.48621479 332.7184137 -63.76147461 334.015625 C-61.88542861 337.36663929 -59.99728214 340.7106452 -58.10388184 344.05187988 C-57.05115558 345.90972111 -56.00040856 347.76866704 -54.95019531 349.62792969 C-47.90294338 362.09410273 -40.74209598 374.49401672 -33.51022339 386.85385132 C-32.79828423 388.07079718 -32.08695442 389.28809974 -31.37625122 390.50576782 C-27.54415855 397.06850208 -23.65745827 403.58700616 -19.62890625 410.03125 C-18.93418213 411.15313721 -18.23945801 412.27502441 -17.52368164 413.4309082 C-16.21727369 415.53323365 -14.89584204 417.62633157 -13.55639648 419.70776367 C-9.68908866 425.95258023 -8.08865412 430.68022157 -8 438 C-7.89869319 439.66041542 -7.79316495 441.32057822 -7.68359375 442.98046875 C-7.59723478 444.71593589 -7.51535673 446.45163065 -7.4375 448.1875 C-7.3950415 449.11643066 -7.35258301 450.04536133 -7.30883789 451.00244141 C-6.86621669 461.66631708 -6.90390746 472.32929341 -7 483 C-9.64752004 480.42215154 -11.94432065 478.08351902 -14 475 C-16.97033165 474.21386968 -19.81640006 473.61118159 -22.8359375 473.09765625 C-24.1823381 472.85400833 -24.1823381 472.85400833 -25.55593872 472.60543823 C-28.4934676 472.07804704 -31.43395195 471.56986701 -34.375 471.0625 C-36.40700853 470.70251053 -38.43890928 470.34191211 -40.47070312 469.98071289 C-52.18707476 467.91579827 -63.90814728 466.0780578 -75.7019043 464.51245117 C-85.60117584 463.15596958 -95.38599542 461.29946645 -105.1875 459.375 C-105.96448242 459.22247772 -106.74146484 459.06995544 -107.54199219 458.91281128 C-115.38208636 457.36759263 -123.20971355 455.78214933 -131 454 C-131.11102051 454.58845703 -131.22204102 455.17691406 -131.33642578 455.78320312 C-132.42214191 461.38817154 -133.70332335 466.91328374 -135.10644531 472.4465332 C-138.64963904 486.52363737 -141.10166455 500.6153631 -143 515 C-143.17789063 516.27955566 -143.17789063 516.27955566 -143.359375 517.58496094 C-147.35198688 546.8759975 -149.01039906 585.1125894 -132 611 C-125.52891437 619.19767574 -116.41204184 624.60915211 -106 626 C-73.429101 628.90904361 -39.02137346 604.20592368 -14.62597656 585.23632812 C-11.21061175 582.63942011 -7.6230966 580.29462785 -4 578 C-3.85304688 578.61746094 -3.70609375 579.23492188 -3.5546875 579.87109375 C-1.79250502 586.52485173 0.87893389 591.51614748 5 597 C5.680625 597.9075 6.36125 598.815 7.0625 599.75 C9.25607491 602.29737732 11.61386645 604.63345703 14 607 C4.41304912 614.68623367 -5.55748809 621.52815776 -16 628 C-16.70705078 628.43876465 -17.41410156 628.8775293 -18.14257812 629.32958984 C-46.81560217 646.98315133 -84.30138459 664.04146301 -118.7421875 656.05078125 C-122.62359894 654.97191821 -126.29058858 653.56869969 -130 652 C-131.40765625 651.42378906 -131.40765625 651.42378906 -132.84375 650.8359375 C-150.63183744 642.76541635 -163.05233303 626.35898976 -169.79296875 608.42578125 C-171.35738669 603.99646728 -172.72454968 599.52018731 -174 595 C-174.31710937 593.87980469 -174.63421875 592.75960937 -174.9609375 591.60546875 C-186.60273135 545.78751772 -178.4451642 487.95226252 -163 444 C-164.18980469 443.77054688 -165.37960937 443.54109375 -166.60546875 443.3046875 C-173.35236376 441.79778014 -179.8121344 439.44928418 -186.3125 437.125 C-186.98651855 436.88490204 -187.66053711 436.64480408 -188.35498047 436.39743042 C-237.2637098 418.90612584 -294.08939334 393.82121332 -318.56640625 344.8671875 C-326.8808624 326.25273343 -327.45601842 306.91073325 -320.21875 287.95361328 C-302.69402539 244.21279313 -255.98706554 218.25785768 -214.8125 200.5 C-203.91364693 195.90101811 -192.77869826 192.05369455 -181.5625 188.3125 C-180.35613388 187.9095874 -180.35613388 187.9095874 -179.12539673 187.49853516 C-176.83711056 186.73816733 -174.54632557 185.98608576 -172.25390625 185.23828125 C-171.56447937 185.01074661 -170.87505249 184.78321198 -170.16473389 184.54878235 C-167.31521139 183.63174561 -165.01526036 183 -162 183 C-162.3242395 181.75802856 -162.3242395 181.75802856 -162.6550293 180.4909668 C-177.63197549 122.78298316 -192.69550668 48.9778407 -161 -6 C-149.750941 -23.69747621 -134.88105633 -32.99143186 -115.04150391 -38.54858398 C-76.01728626 -47.1775936 -31.13378647 -19.8217414 0 0 Z " fill="#37B3D7" transform="translate(442,189)"/>
<path d="M0 0 C0.99966797 0.73283203 0.99966797 0.73283203 2.01953125 1.48046875 C22.34948667 17.72037396 29.55952212 47.6594497 32.5625 72.21875 C33.36670733 80.80048873 33.24443883 89.45098341 33.25 98.0625 C33.25067474 99.00095764 33.25134949 99.93941528 33.25204468 100.90631104 C33.23504564 115.81430913 32.47272139 130.27705496 30 145 C29.74259033 146.63171143 29.74259033 146.63171143 29.47998047 148.29638672 C26.80522906 165.18389224 23.06903949 181.67623451 18.67675781 198.19287109 C17.97245436 201.11425677 17.4597839 204.0311567 17 207 C17.53987549 207.08056641 18.07975098 207.16113281 18.63598633 207.24414062 C26.99034884 208.68859048 34.76817351 211.57227018 42.6875 214.5 C43.41210419 214.76566772 44.13670837 215.03133545 44.88327026 215.30505371 C63.41556719 222.10910328 81.53565288 229.77192522 99 239 C99.70930664 239.37060547 100.41861328 239.74121094 101.14941406 240.12304688 C117.78787707 248.86787964 133.10479073 259.31828789 147 272 C147.51401367 272.46873535 148.02802734 272.9374707 148.55761719 273.42041016 C166.34804141 289.87961603 179.41246641 310.77746686 180.39819336 335.52270508 C180.86590793 362.76925749 167.40257351 382.93616235 149 402 C148.46503906 402.55905029 147.93007813 403.11810059 147.37890625 403.6940918 C117.96821693 433.85581593 76.05034964 450.22141413 37.0625 463.6875 C35.90107483 464.0904126 35.90107483 464.0904126 34.71618652 464.50146484 C32.51256929 465.26265253 30.30591871 466.01412816 28.09765625 466.76171875 C27.43844681 466.98925339 26.77923737 467.21678802 26.10005188 467.45121765 C22.8327682 468.54254402 20.50168843 469 17 469 C17.29132813 469.98613281 17.58265625 470.97226562 17.8828125 471.98828125 C32.92046114 523.88901148 45.59438004 593.01768637 19.1027832 643.64086914 C9.43367488 661.16141231 -3.79980879 673.64648218 -23 680 C-58.02593435 689.55252755 -92.2440827 675.31786053 -122.33325195 658.16137695 C-136.13314603 650.12550918 -149.91153494 641.49187534 -162 631 C-157 626 -157 626 -154.5625 623.75 C-149.08058412 617.86696832 -145.49270004 611.61658345 -143 604 C-139.33995583 605.61319482 -136.49209044 607.88616035 -133.375 610.375 C-106.12492063 631.6970471 -72.96185963 653.83889062 -37 651 C-32.96176046 650.19050181 -29.61354962 648.95863067 -26 647 C-24.95005859 646.45085937 -24.95005859 646.45085937 -23.87890625 645.890625 C-12.63038768 638.78629748 -6.38805733 623.45731198 -3.55552673 611.0536499 C-1.09405929 598.94335283 -0.4731857 587.08089307 -0.5625 574.75 C-0.56756058 573.38287369 -0.56756058 573.38287369 -0.57272339 571.98812866 C-0.73400111 541.68671664 -6.06960658 512.27372024 -14.46459961 483.19604492 C-15 481 -15 481 -15 478 C-15.81557373 478.24886963 -16.63114746 478.49773926 -17.47143555 478.75415039 C-26.83399961 481.52972835 -36.22358942 483.61184272 -45.8125 485.4375 C-46.58668274 485.58684998 -47.36086548 485.73619995 -48.1585083 485.89007568 C-59.36264309 488.04694659 -70.58847923 489.95483908 -81.875 491.625 C-82.87867111 491.77373566 -82.87867111 491.77373566 -83.90261841 491.92547607 C-87.24885634 492.42031981 -90.59557983 492.91182703 -93.94238281 493.40283203 C-100.21935208 494.32546768 -106.49403582 495.25840746 -112.76031494 496.25140381 C-114.69637941 496.55411618 -116.63504466 496.8400452 -118.57373047 497.12548828 C-120.32387451 497.40561768 -120.32387451 497.40561768 -122.109375 497.69140625 C-123.12999023 497.84810791 -124.15060547 498.00480957 -125.20214844 498.16625977 C-130.63089397 499.78398804 -134.13631917 504.02592829 -138 508 C-138.01273102 505.93620391 -138.02415708 503.87239979 -138.03515625 501.80859375 C-138.03866089 501.16102615 -138.04216553 500.51345856 -138.04577637 499.8462677 C-138.06188921 496.23084061 -138.06107852 492.61634527 -138.03295898 489.00097656 C-138.02188126 487.51497464 -138.01089493 486.02897203 -138 484.54296875 C-137.99424454 483.80378204 -137.98848907 483.06459534 -137.9825592 482.30300903 C-137.96358738 478.09582416 -138.09039616 473.93828049 -138.375 469.73828125 C-139.17781211 452.91451547 -131.23816082 441.59407721 -122.15917969 428.21923828 C-119.21107915 423.82375505 -116.49948563 419.30798909 -113.8125 414.75 C-112.86094588 413.15999535 -111.90912135 411.57015251 -110.95703125 409.98046875 C-102.61695919 395.96745428 -94.30158383 381.91165353 -86.37207031 367.66137695 C-83.91763034 363.25636924 -81.36840693 359.01180046 -78.52734375 354.84375 C-72.99676101 346.98112947 -72.99676101 346.98112947 -71.10742188 337.84716797 C-72.30809062 333.18633024 -74.81504517 329.32461841 -77.46582031 325.35644531 C-79.74543314 321.85504127 -81.7131504 318.19437596 -83.72827148 314.53637695 C-85.38211986 311.54964203 -87.07347679 308.58735208 -88.77734375 305.62890625 C-91.15362034 301.495008 -93.47624185 297.33699285 -95.76074219 293.15185547 C-109.16098647 268.64775732 -124.05337505 244.48971132 -140.54736328 221.94775391 C-144 217.19749819 -144 217.19749819 -144 215 C-144.66 215 -145.32 215 -146 215 C-146 215.66 -146 216.32 -146 217 C-146.66 217 -147.32 217 -148 217 C-161.86372182 192.19297735 -161.86372182 192.19297735 -165 183 C-165.25676514 182.38656738 -165.51353027 181.77313477 -165.77807617 181.14111328 C-169.09542723 172.19157236 -168.32584816 162.76701295 -168.1875 153.375 C-168.1724266 151.58985503 -168.15874289 149.80469776 -168.14648438 148.01953125 C-168.11368745 143.67937971 -168.06205209 139.33982783 -168 135 C-160.46328935 141.29568338 -154.08151584 148.2705892 -148.01196289 155.98901367 C-147.0784769 157.17423361 -146.13469949 158.35141207 -145.18139648 159.52075195 C-142.75636848 162.53819079 -140.70747126 165.4318911 -138.98046875 168.90234375 C-136.66089027 173.19389188 -134.31850661 176.56041597 -130 179 C-121.94290249 181.18115902 -113.38927023 181.16779966 -105.08865356 181.55444336 C-95.75152085 182.0348579 -86.5500148 183.41995018 -77.3125 184.8125 C-76.00966568 185.00569321 -76.00966568 185.00569321 -74.68051147 185.20278931 C-54.89473977 188.14839086 -35.38555142 192.04120853 -16 197 C-15.90058105 196.30849854 -15.80116211 195.61699707 -15.69873047 194.90454102 C-14.49752178 187.10824697 -12.67866415 179.5816707 -10.65802002 171.96148682 C-6.65446257 156.75915444 -3.92429324 141.61194308 -2 126 C-1.77459161 124.31885527 -1.54811741 122.63785292 -1.3203125 120.95703125 C2.52861219 91.41004643 1.32293157 55.19000938 -16.9453125 30.35546875 C-21.52140204 25.36252895 -26.6070892 23.0098494 -33 21 C-33.99 20.67 -34.98 20.34 -36 20 C-49.15243737 18.74070712 -60.81124133 20.07901373 -73 25 C-74.22074219 25.46148437 -75.44148437 25.92296875 -76.69921875 26.3984375 C-109.89587745 39.52560061 -142.27807385 63.23798267 -166.890625 89.015625 C-169 91 -169 91 -171 91 C-171.65355469 89.60587891 -171.65355469 89.60587891 -172.3203125 88.18359375 C-177.13762713 78.10210952 -182.24900538 71.06811104 -191 64 C-189.65302548 60.92783644 -188.25219756 59.08481637 -185.6875 56.9375 C-184.96433594 56.3290625 -184.24117187 55.720625 -183.49609375 55.09375 C-182.67238281 54.4028125 -181.84867188 53.711875 -181 53 C-180.10410156 52.2059375 -179.20820312 51.411875 -178.28515625 50.59375 C-169.49533146 42.85161304 -160.02590936 36.19872044 -150.35400391 29.60888672 C-148.31239348 28.213511 -146.28470349 26.80104842 -144.26171875 25.37890625 C-105.04184734 -1.88934754 -44.42387645 -33.09209281 0 0 Z " fill="#38B3D8" transform="translate(726,164)"/>
<path d="M0 0 C1.4325135 -0.0046225 1.4325135 -0.0046225 2.89396667 -0.00933838 C4.46843315 -0.00640778 4.46843315 -0.00640778 6.07470703 -0.00341797 C7.17498734 -0.00500916 8.27526764 -0.00660034 9.40888977 -0.00823975 C13.05013976 -0.01084133 16.69128023 -0.00454248 20.33251953 0.00439453 C21.57127838 0.00727478 22.81003723 0.01015503 24.08633423 0.01312256 C30.57519285 0.03076284 37.06394397 0.0578497 43.55273438 0.09228516 C48.74322424 0.11942581 53.9334643 0.13358853 59.12402344 0.13525391 C65.15755908 0.13854004 71.19018786 0.17221429 77.22344971 0.22906494 C79.49858421 0.24590757 81.77381729 0.25259318 84.04901123 0.2489624 C87.22128707 0.24621827 90.39106322 0.2807801 93.56298828 0.32470703 C94.49693924 0.31562317 95.4308902 0.30653931 96.3931427 0.29718018 C97.68607491 0.32651642 97.68607491 0.32651642 99.00512695 0.35644531 C99.74889084 0.36088654 100.49265472 0.36532776 101.25895691 0.36990356 C104.84297444 1.60799836 106.81908149 3.82206658 108.45751953 7.12939453 C109.08625204 10.78506712 108.95833749 14.33832237 108.8137207 18.03540039 C108.79224818 19.09608954 108.77077566 20.1567787 108.74865246 21.24960995 C108.67598877 24.54402804 108.56851198 27.8360712 108.45751953 31.12939453 C108.40871634 33.05668308 108.36181116 34.98402088 108.31704712 36.91140747 C108.16976353 42.8201631 107.96549317 48.72639221 107.75830078 54.63330078 C107.6819302 56.89901026 107.6059339 59.16473239 107.53027344 61.4304657 C107.36695331 66.29889984 107.2011594 71.16724081 107.03335571 76.03552246 C106.76413451 83.84695429 106.50041476 91.65856701 106.23754883 99.47021484 C106.14532091 102.20895527 106.05304349 104.94769403 105.96073914 107.68643188 C105.93751589 108.37553371 105.91429264 109.06463553 105.89036566 109.77461922 C105.72204564 114.76654774 105.55288615 119.75844742 105.38337708 124.75033569 C104.61479046 147.39061648 103.86130177 170.03137814 103.11376953 192.67236328 C103.05715752 194.38656175 103.00054423 196.10076018 102.94392967 197.81495857 C102.69088784 205.47719796 102.43796501 213.13944127 102.18513864 220.80168778 C101.7013952 235.46192874 101.21690737 250.12214502 100.73138297 264.78232712 C100.60994831 268.44908037 100.48858222 272.11583585 100.36743164 275.7825985 C100.10819796 283.62747293 99.84701231 291.47227934 99.58411026 299.31703186 C99.4754049 302.59076496 99.36883948 305.86455851 99.26346594 309.13840032 C99.1581589 312.39554336 99.05009161 315.65259551 98.94262695 318.90966797 C98.8873595 320.66233664 98.8873595 320.66233664 98.83097553 322.45041275 C97.6105231 358.96637615 97.6105231 358.96637615 86.64501953 370.25439453 C75.95659837 379.41589838 59.90458737 378.48214395 46.59033203 378.44506836 C44.19665069 378.44188005 41.80417675 378.46556614 39.41064453 378.49072266 C27.71779059 378.539866 18.18808998 377.56526218 9.45751953 369.12939453 C1.91763727 360.2248277 0.08093067 350.05106102 -0.671875 338.68212891 C-0.75056887 337.5985183 -0.82926273 336.51490768 -0.91034126 335.39846039 C-1.76206224 323.03922366 -2.13314066 310.66751007 -2.47216797 298.28564453 C-2.54747797 295.71423094 -2.62340882 293.14283547 -2.6999054 290.57145691 C-2.86191291 285.10148328 -3.01978431 279.63140461 -3.1746521 274.16122437 C-3.41993634 265.50303717 -3.67406997 256.84512176 -3.93041992 248.18725586 C-3.9520544 247.45647705 -3.97368888 246.72569824 -3.99597895 245.97277462 C-4.10618354 242.25149113 -4.21652888 238.53021184 -4.32696342 234.80893517 C-4.41627631 231.79808147 -4.50525799 228.78721825 -4.59395027 225.77634621 C-5.24068706 203.82362891 -5.92646812 181.87249359 -6.65576172 159.92236328 C-6.67849907 159.23762955 -6.70123642 158.55289582 -6.72466278 157.84741259 C-7.14116129 145.30992589 -7.56245074 132.77260127 -7.98602295 120.23535156 C-9.57760566 73.12451556 -9.57760566 73.12451556 -10.13623047 51.74658203 C-10.15579992 50.99933554 -10.17536938 50.25208904 -10.19553185 49.48219872 C-10.46267953 39.17789074 -10.6743531 28.87306312 -10.85498047 18.56689453 C-10.87831955 17.32471664 -10.90165863 16.08253876 -10.92570496 14.80271912 C-11.03077952 6.95799272 -11.03077952 6.95799272 -8.64794922 2.91455078 C-5.58022716 0.31353226 -3.93846119 0.00375912 0 0 Z " fill="#F35C00" transform="translate(461.54248046875,405.87060546875)"/>
<path d="M0 0 C44.35892789 9.49943869 108.04327838 34.22667155 134 74 C140.56607583 86.41376261 143.68991244 99.46178991 139.875 113.375 C139.29954045 114.93583549 138.67299437 116.47867173 138 118 C137.63261719 118.84304688 137.26523437 119.68609375 136.88671875 120.5546875 C116.71876405 161.60450681 62.75454047 179.21201282 22.91845703 193.00976562 C15.65460221 195.47439631 8.338703 197.76952412 1 200 C-1.54975483 193.92358014 -3.82009702 187.76446112 -5.99609375 181.546875 C-11.52125929 165.78437842 -17.08464091 150.07329916 -23.75 134.75 C-24.01538574 134.13926636 -24.28077148 133.52853271 -24.55419922 132.89929199 C-28.33081198 124.26893395 -32.44162367 115.84169313 -37.28222656 107.75292969 C-40.17903649 102.69367865 -40.17903649 102.69367865 -39.25292969 99.10546875 C-38.08843131 96.21918283 -36.85202521 93.42211525 -35.48828125 90.625 C-21.40507677 61.28555463 -9.80672375 31.02234694 0 0 Z " fill="#131213" transform="translate(732,402)"/>
<path d="M0 0 C0.39678955 1.09538086 0.7935791 2.19076172 1.20239258 3.31933594 C5.76182528 15.89421602 10.35746112 28.4555515 15 41 C15.2693335 41.72783691 15.53866699 42.45567383 15.81616211 43.20556641 C20.06297779 54.65326335 24.4418844 65.97924574 29.82421875 76.9453125 C30.15019547 77.61014648 30.47617218 78.27498047 30.81202698 78.95996094 C32.40162476 82.18571593 34.01583294 85.39582905 35.67016602 88.58886719 C36.24822998 89.73258789 36.82629395 90.87630859 37.421875 92.0546875 C37.94362305 93.05999512 38.46537109 94.06530273 39.00292969 95.10107422 C40.45276915 99.3164008 39.75537902 102.26190389 38.00708008 106.28466797 C37.39449341 107.37739014 37.39449341 107.37739014 36.76953125 108.4921875 C36.07053711 109.77089722 36.07053711 109.77089722 35.35742188 111.07543945 C34.84759766 111.99929443 34.33777344 112.92314941 33.8125 113.875 C20.85729917 138.12674336 11.00099122 163.46436454 2.2199707 189.47851562 C0.8797917 193.34698508 -0.5487182 197.17195848 -2 201 C-110.26895313 166.29653765 -110.26895313 166.29653765 -134 123 C-139.42126884 112.19051884 -140.76331007 100.72094922 -138.3515625 88.79296875 C-137.41491035 86.05906526 -136.31720403 83.57187019 -135 81 C-134.51402344 80.02804687 -134.02804688 79.05609375 -133.52734375 78.0546875 C-110.99598022 36.40096106 -52.85411873 17.02527455 -11 2 C-9.98977783 1.62504395 -8.97955566 1.25008789 -7.9387207 0.86376953 C-5.1102025 0.0323915 -2.92469754 -0.17204103 0 0 Z " fill="#131213" transform="translate(290,402)"/>
<path d="M0 0 C1.20623197 2.41246393 1.12474429 3.92508251 1.12223816 6.6190033 C1.12270047 7.57377091 1.12316278 8.52853853 1.12363911 9.5122385 C1.11788459 10.54968173 1.11213007 11.58712496 1.10620117 12.65600586 C1.10277553 13.73474189 1.09934988 14.81347792 1.09582043 15.92490292 C1.03540957 27.12533559 0.69338489 38.31105392 0.30078125 49.50390625 C0.22441066 51.76961573 0.14841437 54.03533786 0.07275391 56.30107117 C-0.09056622 61.16950531 -0.25636013 66.03784628 -0.42416382 70.90612793 C-0.69338503 78.71755976 -0.95710477 86.52917248 -1.2199707 94.34082031 C-1.31219862 97.07956074 -1.40447604 99.8182995 -1.4967804 102.55703735 C-1.52000364 103.24613917 -1.54322689 103.935241 -1.56715387 104.64522469 C-1.73547389 109.63715321 -1.90463338 114.62905289 -2.07414246 119.62094116 C-2.84272907 142.26122195 -3.59621777 164.90198361 -4.34375 187.54296875 C-4.40036201 189.25716722 -4.4569753 190.97136565 -4.51358986 192.68556404 C-4.76663169 200.34780343 -5.01955452 208.01004674 -5.27238089 215.67229325 C-5.75612433 230.33253421 -6.24061217 244.99275049 -6.72613657 259.65293258 C-6.84757122 263.31968584 -6.96893732 266.98644132 -7.09008789 270.65320396 C-7.34932157 278.4980784 -7.61050722 286.34288481 -7.87340927 294.18763733 C-7.98211463 297.46137043 -8.08868005 300.73516398 -8.19405359 304.00900578 C-8.29936063 307.26614883 -8.40742792 310.52320098 -8.51489258 313.78027344 C-8.57016003 315.5329421 -8.57016003 315.5329421 -8.626544 317.32101822 C-9.81683377 352.93451407 -9.81683377 352.93451407 -20.90234375 365.3203125 C-23.34850172 367.27906097 -24.92736884 367.57246264 -28 368 C-29.65078617 368.50491558 -31.29672528 369.02594334 -32.9375 369.5625 C-36.74909859 370.7361761 -39.9780026 371.31752611 -44 371 C-43.61328125 370.57332031 -43.2265625 370.14664062 -42.828125 369.70703125 C-35.3563013 360.73714389 -33.08190297 349.08348725 -32.50537109 337.65649414 C-32.46477758 336.88648858 -32.42418407 336.11648302 -32.38236046 335.32314396 C-31.7554618 322.80492898 -31.39434708 310.27426043 -30.9874773 297.74736214 C-30.86212611 293.90346193 -30.73426846 290.05964508 -30.60662842 286.21582031 C-30.38972297 279.67605067 -30.17400453 273.13624294 -29.95916748 266.59640503 C-29.42752168 250.41679569 -28.88969619 234.23739134 -28.34992075 218.05805135 C-28.29367084 216.37193603 -28.23744319 214.68581997 -28.1812377 212.99970317 C-27.30811121 186.80980766 -26.38325674 160.62257639 -25.375 134.4375 C-23.61289392 88.634975 -22.32046007 42.81701845 -21 -3 C-18.43786831 -3.27698721 -15.87907631 -3.52215772 -13.3125 -3.75 C-12.2306543 -3.87181641 -12.2306543 -3.87181641 -11.12695312 -3.99609375 C-5.99186202 -4.41815603 -3.56192767 -3.7321919 0 0 Z " fill="#D74300" transform="translate(569,411)"/>
<path d="M0 0 C14.85 0 29.7 0 45 0 C46.0828125 5.8471875 46.0828125 5.8471875 47.1875 11.8125 C52.21026953 39.48414419 52.21026953 39.48414419 64.86328125 64.2578125 C66 66 66 66 66 68 C47.96148309 69.08387512 29.95615805 69.12310323 11.89428711 69.06866455 C8.05843676 69.05824441 4.22257931 69.05382784 0.38671875 69.04882812 C-7.07553953 69.03825601 -14.53776378 69.02129915 -22 69 C-20.5903317 65.43320173 -19.06520864 61.97842413 -17.390625 58.52734375 C-10.10349411 43.32910935 -10.10349411 43.32910935 -4.375 27.5 C-4.15231445 26.79866943 -3.92962891 26.09733887 -3.70019531 25.37475586 C-1.30907126 16.98206248 -0.98539197 8.86852777 0 0 Z " fill="#213743" transform="translate(489,329)"/>
<path d="M0 0 C11.51461449 0.50996016 22.66491494 2.2650596 34 4.25 C34.90131653 4.40584564 35.80263306 4.56169128 36.73126221 4.72225952 C47.32091057 6.55573015 57.8891688 8.44697253 68.375 10.8125 C69.23996094 11.00682617 70.10492187 11.20115234 70.99609375 11.40136719 C74.47694721 12.22799724 76.99464028 12.99642685 80 15 C73.89298615 32.69614461 67.78480936 50.38643572 60.9375 67.8125 C60.49752686 68.9355957 60.05755371 70.05869141 59.60424805 71.21582031 C57.31800208 76.96344003 54.86399732 82.51673491 52 88 C49.33383145 85.61523034 47.85212179 83.13175521 46.20703125 79.96875 C45.66771973 78.94458984 45.1284082 77.92042969 44.57275391 76.86523438 C43.99187012 75.75470703 43.41098633 74.64417969 42.8125 73.5 C32.67865459 54.41764752 21.48418575 35.97297262 10.1875 17.5625 C9.51154785 16.46035156 8.8355957 15.35820312 8.13916016 14.22265625 C7.50929199 13.20171875 6.87942383 12.18078125 6.23046875 11.12890625 C5.67770264 10.23244385 5.12493652 9.33598145 4.55541992 8.41235352 C3.04219181 5.98897831 3.04219181 5.98897831 1.2980957 3.80444336 C0 2 0 2 0 0 Z " fill="#131213" transform="translate(622,379)"/>
<path d="M0 0 C0.66 0 1.32 0 2 0 C10.41523803 19.65314931 17.99322547 39.52276482 25.09788513 59.68560791 C26.05510488 62.39474255 27.02926994 65.06814503 28.16357422 67.70898438 C29 70 29 70 29 74 C5.80556834 78.71427282 -17.48961856 82.62740689 -40.86352539 86.33911133 C-44.24505674 86.87693891 -47.62345789 87.43156425 -51 88 C-49.30913665 82.99703373 -46.47222753 78.83894806 -43.625 74.4375 C-28.22737945 50.33253199 -12.79908231 25.59816462 0 0 Z " fill="#131213" transform="translate(673,539)"/>
<path d="M0 0 C-1.16783951 1.94639918 -2.33570331 3.89278373 -3.50366211 5.83911133 C-4.56345077 7.60564707 -5.62284386 9.37242017 -6.68188477 11.1394043 C-9.67210121 16.12710421 -12.66948187 21.11027273 -15.6796875 26.0859375 C-22.94832452 38.11871577 -30.0276561 50.23412356 -36.90234375 62.49609375 C-41.51313119 70.71494277 -46.25820505 78.85627601 -51 87 C-54.02157376 82.46763936 -55.82219179 77.46991321 -57.875 72.4375 C-58.35316162 71.26541992 -58.83132324 70.09333984 -59.32397461 68.88574219 C-63.34266253 58.93740254 -67.00256638 48.87040616 -70.5625 38.75 C-70.95124298 37.64638626 -70.95124298 37.64638626 -71.34783936 36.52047729 C-78 17.58656984 -78 17.58656984 -78 12 C-56.90470342 5.96795833 -34.84632827 3.17694264 -13.13378906 0.28710938 C-11.67590531 0.09094561 -10.21952104 -0.11661153 -8.76464844 -0.33398438 C-5.41830582 -0.81181593 -3.25386588 -1.08462196 0 0 Z " fill="#131213" transform="translate(400,380)"/>
<path d="M0 0 C0.66 0 1.32 0 2 0 C2.41660889 0.76328613 2.83321777 1.52657227 3.26245117 2.31298828 C14.82243077 23.46110947 26.82819393 44.2694985 39.4375 64.8125 C40.10007812 65.89233154 40.76265625 66.97216309 41.4453125 68.0847168 C45.17951121 74.13906103 49.00197734 80.11627596 53 86 C50.53400645 87.23299677 49.60541887 86.92587642 46.91870117 86.45849609 C45.64645691 86.24209221 45.64645691 86.24209221 44.34851074 86.02131653 C43.42268188 85.85701645 42.49685303 85.69271637 41.54296875 85.5234375 C40.57983765 85.35780807 39.61670654 85.19217865 38.62438965 85.02153015 C35.47765116 84.4788852 32.33259392 83.92708984 29.1875 83.375 C27.04086885 83.00261212 24.89414003 82.63078682 22.74731445 82.25952148 C18.479436 81.52066947 14.21216455 80.77844691 9.9453125 80.03369141 C4.79929279 79.13679665 -0.34934733 78.25656339 -5.5 77.38671875 C-6.85832986 77.15648829 -8.21664751 76.92618576 -9.57495117 76.69580078 C-12.01493834 76.28236249 -14.45519435 75.87050679 -16.89575195 75.46044922 C-18.48842896 75.1880542 -18.48842896 75.1880542 -20.11328125 74.91015625 C-21.01860596 74.75683838 -21.92393066 74.60352051 -22.85668945 74.44555664 C-25 74 -25 74 -27 73 C-24.68653649 63.7961734 -21.66145566 54.87519419 -18.5 45.9375 C-18.24076752 45.20120361 -17.98153503 44.46490723 -17.71444702 43.70629883 C-12.4967163 28.93001438 -7.01508827 14.03017654 0 0 Z " fill="#131213" transform="translate(348,540)"/>
<path d="M0 0 C2.47157596 1.16713309 3.61435532 1.87379561 5.25 4.0625 C5.68237305 7.12744141 5.68237305 7.12744141 5.76171875 10.9140625 C5.77980591 11.59757782 5.79789307 12.28109314 5.81652832 12.98532104 C5.87157162 15.21932957 5.90521636 17.4530557 5.9375 19.6875 C5.96894874 21.22332513 6.00126198 22.75913278 6.03442383 24.29492188 C6.11283383 28.15321123 6.17093681 32.01148362 6.22070312 35.87023926 C6.24837101 37.9406043 6.28138924 40.0108026 6.31640625 42.08105469 C6.37138439 45.57491529 6.40960295 49.06832899 6.4375 52.5625 C6.45063232 53.60486816 6.46376465 54.64723633 6.47729492 55.72119141 C6.47834229 56.66913574 6.47938965 57.61708008 6.48046875 58.59375 C6.48457764 59.41423828 6.48868652 60.23472656 6.49291992 61.08007812 C6.25 63.0625 6.25 63.0625 4.25 65.0625 C-3.47833833 66.58329925 -11.40595212 66.17381805 -19.25 66.125 C-20.65885258 66.11997533 -22.06770689 66.11541413 -23.4765625 66.11132812 C-26.90108638 66.0996003 -30.32552047 66.08318691 -33.75 66.0625 C-34.09946526 60.58626419 -34.35153091 55.11665941 -34.51904297 49.63183594 C-34.5889168 47.77261252 -34.68407306 45.9141437 -34.80615234 44.05761719 C-35.76440214 29.09603628 -35.76440214 29.09603628 -32.41830444 24.05706787 C-29.19363552 20.52175289 -25.49440239 17.7939375 -21.48779297 15.20689392 C-18.95520862 13.53910369 -16.64828516 11.61716444 -14.3125 9.6875 C-13.52617187 9.07261719 -12.73984375 8.45773437 -11.9296875 7.82421875 C-9.83710576 6.13290268 -7.89914982 4.3395729 -5.9375 2.5 C-3.13249191 0.071193 -3.13249191 0.071193 0 0 Z " fill="#D84400" transform="translate(524.75,254.9375)"/>
<path d="M0 0 C4.55555556 0.55555556 4.55555556 0.55555556 6 2 C6.14571707 4.03873741 6.22155845 6.08247655 6.27133179 8.12580872 C6.28840978 8.77396838 6.30548777 9.42212805 6.32308328 10.08992893 C6.37950242 12.28097117 6.42878886 14.4721155 6.47802734 16.66333008 C6.51661888 18.23014134 6.5555797 19.79694354 6.59488297 21.36373711 C6.70106877 25.65701615 6.80058045 29.95042696 6.89856768 34.24390006 C6.96111941 36.96494428 7.02542411 39.68594149 7.09031296 42.40693092 C8.05733378 82.99775806 8.79343994 123.59261563 9.48020053 164.18900883 C9.61007544 171.84980544 9.7441782 179.51052392 9.87921965 187.17123097 C10.02900064 195.67418497 10.17579815 204.17718815 10.32133102 212.68021584 C10.38177205 216.20849139 10.44319802 219.73674744 10.50554276 223.26498985 C10.87395202 244.17927411 11.09037915 265.08213892 11 286 C9.68 286.66 8.36 287.32 7 288 C6.01 287.34 5.02 286.68 4 286 C3.50462341 283.25006294 3.50462341 283.25006294 3.34155273 279.66677856 C3.30897338 279.00561731 3.27639402 278.34445606 3.24282742 277.66325963 C3.14176468 275.4424569 3.06725784 273.22207499 3 271 C2.97617878 270.23777555 2.95235756 269.4755511 2.92781448 268.69022894 C2.74816822 262.57148675 2.63992049 256.45194321 2.53515625 250.33154297 C2.49753746 248.2908623 2.45959475 246.25018758 2.4213562 244.20951843 C2.3401486 239.83912511 2.26119786 235.46869915 2.18405151 231.09823227 C2.06133628 224.1473796 1.93344639 217.19662764 1.80493164 210.24588013 C1.60153061 199.21239259 1.40152607 188.17884656 1.20299244 177.14527047 C0.84924623 157.48851903 0.49085053 137.8318527 0.12954998 118.17523873 C0.00346227 111.30743263 -0.12078566 104.43959654 -0.24354935 97.57173026 C-0.63136709 75.92894368 -1.04960138 54.28898286 -1.67567444 32.65159416 C-1.90062621 24.87227163 -2.09278616 17.09462488 -2.1875 9.3125 C-2.20074814 8.56700457 -2.21399628 7.82150913 -2.22764587 7.05342293 C-2.23002267 5.367242 -2.12701934 3.68139164 -2 2 C-1.34 1.34 -0.68 0.68 0 0 Z " fill="#FDFAF8" transform="translate(475,446)"/>
<path d="M0 0 C1.05999385 40.13204515 2.11245967 80.26188693 2.65795898 120.40478516 C2.79950497 130.5969615 2.9578052 140.78720342 3.22973633 150.97680664 C3.96592793 178.62934503 4.3053549 206.27715536 4.53242874 233.93833542 C4.56286469 237.60645187 4.59458569 241.27455517 4.62667847 244.94265747 C4.9321205 279.96216295 5.16446492 314.97909325 5 350 C4.34 349.67 3.68 349.34 3 349 C2.60410881 347.01753998 2.60410881 347.01753998 2.39987183 344.37731934 C2.28125133 342.89880367 2.28125133 342.89880367 2.16023445 341.39041901 C2.08528189 340.30960808 2.01032932 339.22879715 1.93310547 338.11523438 C1.84989988 336.9910183 1.7666943 335.86680222 1.68096733 334.70851898 C0.80064795 322.20182476 0.41341731 309.68703311 0.0703125 297.15625 C-0.0049975 294.58483641 -0.08092835 292.01344094 -0.15742493 289.44206238 C-0.31943244 283.97208875 -0.47730384 278.50201008 -0.63217163 273.03182983 C-0.87745587 264.37364264 -1.1315895 255.71572723 -1.38793945 247.05786133 C-1.40957393 246.32708252 -1.43120841 245.59630371 -1.45349848 244.84338009 C-1.56370307 241.1220966 -1.67404842 237.40081731 -1.78448296 233.67954063 C-1.87379584 230.66868693 -1.96277752 227.65782372 -2.0514698 224.64695168 C-2.6982066 202.69423438 -3.38398765 180.74309906 -4.11328125 158.79296875 C-4.1360186 158.10823502 -4.15875595 157.42350129 -4.18218231 156.71801805 C-4.59868082 144.18053136 -5.01997027 131.64320674 -5.44354248 119.10595703 C-7.03512519 71.99512103 -7.03512519 71.99512103 -7.59375 50.6171875 C-7.61331945 49.86994101 -7.63288891 49.12269451 -7.65305138 48.35280418 C-7.92019906 38.0484962 -8.13187263 27.74366859 -8.3125 17.4375 C-8.33600021 16.19524155 -8.35950043 14.95298309 -8.38371277 13.67308044 C-8.44571797 8.99048487 -8.48162531 5.89201685 -6.23046875 1.72265625 C-4 0 -4 0 0 0 Z " fill="#EB9859" transform="translate(459,407)"/>
<path d="M0 0 C11.88 0 23.76 0 36 0 C36.721875 3.898125 37.44375 7.79625 38.1875 11.8125 C43.21026953 39.48414419 43.21026953 39.48414419 55.86328125 64.2578125 C57 66 57 66 57 68 C54.75026553 68.054138 52.50015617 68.09285491 50.25 68.125 C48.99703125 68.14820313 47.7440625 68.17140625 46.453125 68.1953125 C43.1073931 68.00607427 41.70258019 67.84135658 39 66 C37.95092773 63.82373047 37.95092773 63.82373047 37.18359375 61.1171875 C36.89564941 60.12203125 36.60770508 59.126875 36.31103516 58.1015625 C36.02276855 57.03679687 35.73450195 55.97203125 35.4375 54.875 C34.98189697 53.25078125 34.98189697 53.25078125 34.51708984 51.59375 C30.67804783 37.62303847 27.77504933 23.5371787 27.9375 9 C27.958125 6.36 27.97875 3.72 28 1 C19.42 1 10.84 1 2 1 C1.67 4.63 1.34 8.26 1 12 C0.67 12 0.34 12 0 12 C0 8.04 0 4.08 0 0 Z " fill="#1B2D38" transform="translate(498,329)"/>
<path d="M0 0 C0.66 0.33 1.32 0.66 2 1 C1.34354492 1.52585693 0.68708984 2.05171387 0.01074219 2.59350586 C-2.64670166 5.77398474 -2.39422663 7.41064086 -2.171875 11.50390625 C-2.11378662 12.79417725 -2.05569824 14.08444824 -1.99584961 15.41381836 C-1.91403628 16.79672032 -1.83208396 18.17961407 -1.75 19.5625 C-1.64779026 21.66750693 -1.55293192 23.77276584 -1.45835876 25.87812805 C-1.39504802 27.27544518 -1.3293491 28.67265618 -1.26124573 30.06974792 C-0.98280553 35.862553 -0.89854221 41.63909073 -0.9375 47.4375 C-0.94378418 48.61517944 -0.94378418 48.61517944 -0.95019531 49.81665039 C-0.96215118 51.54447199 -0.98019141 53.27225059 -1 55 C0.65 55 2.3 55 4 55 C4 55.33 4 55.66 4 56 C-3.59 56 -11.18 56 -19 56 C-19.32430698 50.51252001 -19.60138827 45.05882963 -19.76904297 39.56933594 C-19.8389168 37.71011252 -19.93407306 35.8516437 -20.05615234 33.99511719 C-21.01480422 19.0272585 -21.01480422 19.0272585 -17.66125488 13.98852539 C-14.42971029 10.44954198 -10.72711124 7.70798271 -6.71099854 5.12072754 C-4.344985 3.57095618 -2.17876772 1.79978378 0 0 Z " fill="#F35F00" transform="translate(510,265)"/>
<path d="M0 0 C2.97 0 5.94 0 9 0 C9.20965995 23.90123451 2.95066684 46.59357526 -5 69 C-10.61 69 -16.22 69 -22 69 C-20.56253681 65.40634203 -19.07487395 61.99834297 -17.390625 58.52734375 C-8.13534157 39.19552928 -1.50267031 21.45191404 0 0 Z " fill="#4E6B7B" transform="translate(489,329)"/>
<path d="M0 0 C2.58802485 2.58802485 2.24018115 4.34219729 2.25994873 7.86830139 C2.25432922 8.69003342 2.24870972 9.51176544 2.24291992 10.35839844 C2.24481827 11.22377731 2.24671661 12.08915619 2.24867249 12.98075867 C2.25239198 15.85705485 2.24164938 18.733101 2.23046875 21.609375 C2.22927621 23.61321991 2.22882394 25.61706539 2.2290802 27.62091064 C2.22751268 31.8343859 2.21921032 36.04777653 2.20581055 40.26123047 C2.18895142 45.62717892 2.18499247 50.99303316 2.18575573 56.35900497 C2.18548166 60.50635659 2.17996072 64.65368814 2.17275429 68.80103302 C2.16959835 70.77671405 2.16760751 72.75239734 2.16686058 74.72808075 C2.15831431 85.53416723 1.98923249 96.23098919 1 107 C0.67 107 0.34 107 0 107 C-0.26548129 99.44397351 -0.52648707 91.88780252 -0.78230286 84.33144283 C-0.90131263 80.81992645 -1.02167087 77.30846886 -1.14550781 73.79711914 C-2.79100267 27.04072123 -2.79100267 27.04072123 -1 10.0625 C-0.90460938 9.06927734 -0.80921875 8.07605469 -0.7109375 7.05273438 C-0.48368454 4.70066621 -0.24706279 2.35005335 0 0 Z " fill="#E89858" transform="translate(460,624)"/>
<path d="M0 0 C2 2 2 2 2.22705078 5.80712891 C2.22673346 7.4469742 2.21539681 9.08684017 2.1953125 10.7265625 C2.1924826 11.58937836 2.18965271 12.45219421 2.18673706 13.34115601 C2.17552333 16.1025772 2.15041684 18.8636765 2.125 21.625 C2.11497173 23.49478699 2.10584562 25.36457905 2.09765625 27.234375 C2.07558012 31.82304109 2.04104234 36.41146593 2 41 C1.67 41 1.34 41 1 41 C1 36.05 1 31.1 1 26 C0.34 26 -0.32 26 -1 26 C-1 32.6 -1 39.2 -1 46 C-1.33 46 -1.66 46 -2 46 C-2.2809844 30.53937375 -1.61673281 15.3783109 0 0 Z " fill="#DF8D52" transform="translate(460,624)"/>
<path d="M0 0 C0.33 0 0.66 0 1 0 C1 18.48 1 36.96 1 56 C0.34 55.67 -0.32 55.34 -1 55 C-1.19425873 52.20865148 -1.38069517 49.41716313 -1.5625 46.625 C-1.64661133 45.43390625 -1.64661133 45.43390625 -1.73242188 44.21875 C-2.11328125 38.2265625 -2.11328125 38.2265625 -1 36 C-0.84323225 33.30344554 -0.74163685 30.62870023 -0.68359375 27.9296875 C-0.66281265 27.13345978 -0.64203156 26.33723206 -0.62062073 25.51687622 C-0.55515851 22.96967315 -0.49625585 20.42236575 -0.4375 17.875 C-0.3943116 16.14972873 -0.35069721 14.42446807 -0.30664062 12.69921875 C-0.19948055 8.46625315 -0.09820377 4.23318247 0 0 Z " fill="#ED914E" transform="translate(463,701)"/>
<path d="M0 0 C3.21524305 1.40844718 5.32183868 3.10344786 7.75 5.625 C8.67039062 6.57246094 8.67039062 6.57246094 9.609375 7.5390625 C10.29773438 8.26222656 10.29773438 8.26222656 11 9 C10.67 9.66 10.34 10.32 10 11 C7.36 8.36 4.72 5.72 2 3 C1.67 9.6 1.34 16.2 1 23 C0.34 23.33 -0.32 23.66 -1 24 C-1.02887236 20.18751574 -1.04675492 16.3750593 -1.0625 12.5625 C-1.07087891 11.47388672 -1.07925781 10.38527344 -1.08789062 9.26367188 C-1.09111328 8.22919922 -1.09433594 7.19472656 -1.09765625 6.12890625 C-1.10289307 5.17056885 -1.10812988 4.21223145 -1.11352539 3.22485352 C-1 1 -1 1 0 0 Z " fill="#0E0505" transform="translate(557,297)"/>
<path d="M0 0 C0.33 0 0.66 0 1 0 C1.33 5.28 1.66 10.56 2 16 C2.33 16 2.66 16 3 16 C3 20.29 3 24.58 3 29 C2.01 28.67 1.02 28.34 0 28 C0 18.76 0 9.52 0 0 Z " fill="#F3660F" transform="translate(471,451)"/>
<path d="M0 0 C2.56761548 2.61478952 2.9956345 3.94528576 3.29296875 7.671875 C3.27316751 9.03156035 3.23759202 10.3910934 3.1875 11.75 C3.17396484 12.44738281 3.16042969 13.14476562 3.14648438 13.86328125 C3.1112945 15.57585541 3.05749155 17.28802941 3 19 C2.34 19 1.68 19 1 19 C-0.00926479 14.84373632 -0.10239579 10.95634906 -0.0625 6.6875 C-0.05347656 5.43324219 -0.04445313 4.17898438 -0.03515625 2.88671875 C-0.01775391 1.45779297 -0.01775391 1.45779297 0 0 Z " fill="#221815" transform="translate(449,437)"/>
<path d="M0 0 C2.24537994 1.76675948 2.94789772 2.60489106 3.328125 5.48828125 C3.30234375 6.42027344 3.2765625 7.35226562 3.25 8.3125 C3.22421875 9.28445313 3.1984375 10.25640625 3.171875 11.2578125 C2.98587878 14.2252977 2.62860672 17.09269394 2 20 C1.67 20 1.34 20 1 20 C-0.03026944 13.30324864 -0.10152799 6.7685324 0 0 Z " fill="#35AACB" transform="translate(431,624)"/>
<path d="M0 0 C0.99 0 1.98 0 3 0 C3.33 4.29 3.66 8.58 4 13 C3.01 13.66 2.02 14.32 1 15 C1 12.03 1 9.06 1 6 C0.67 6 0.34 6 0 6 C0 4.02 0 2.04 0 0 Z " fill="#36ACCA" transform="translate(754,697)"/>
<path d="M0 0 C0.99 0 1.98 0 3 0 C3.21824777 6.0018137 2.5056904 11.19233704 1 17 C0.67 17 0.34 17 0 17 C0 11.39 0 5.78 0 0 Z " fill="#35A7C6" transform="translate(117,494)"/>
<path d="M0 0 C2 2 2 2 2.125 5.625 C2.08375 6.73875 2.0425 7.8525 2 9 C1.67 9 1.34 9 1 9 C0.67 12.63 0.34 16.26 0 20 C-0.33 20 -0.66 20 -1 20 C-1.02888514 16.85418577 -1.04675923 13.70840531 -1.0625 10.5625 C-1.07087891 9.66466797 -1.07925781 8.76683594 -1.08789062 7.84179688 C-1.09111328 6.98779297 -1.09433594 6.13378906 -1.09765625 5.25390625 C-1.10551147 4.06776733 -1.10551147 4.06776733 -1.11352539 2.85766602 C-1 1 -1 1 0 0 Z " fill="#2F1910" transform="translate(531,273)"/>
<path d="M0 0 C0.33 0 0.66 0 1 0 C1.08142927 1.7492214 1.13938541 3.49954542 1.1875 5.25 C1.23970703 6.71179688 1.23970703 6.71179688 1.29296875 8.203125 C0.96075202 11.37468742 0.11327721 12.67040307 -2 15 C-2.05386629 12.87527424 -2.09273071 10.75016348 -2.125 8.625 C-2.14820313 7.44164062 -2.17140625 6.25828125 -2.1953125 5.0390625 C-2 2 -2 2 0 0 Z " fill="#36ACCD" transform="translate(758,273)"/>
<path d="M0 0 C0.33 0 0.66 0 1 0 C1 4.29 1 8.58 1 13 C0.67 13 0.34 13 0 13 C-0.66 10.36 -1.32 7.72 -2 5 C-2.99 5.495 -2.99 5.495 -4 6 C-2.84826645 3.53199953 -1.95216435 1.95216435 0 0 Z " fill="#3BC3E3" transform="translate(464,299)"/>
<path d="M0 0 C0.66 0.99 1.32 1.98 2 3 C1.01 4.98 0.02 6.96 -1 9 C-1.66 9 -2.32 9 -3 9 C-2.5020163 5.26512223 -2.12508244 3.18762365 0 0 Z " fill="#3ABFDF" transform="translate(683,446)"/>
<path d="M0 0 C0 3.74876504 -0.54678356 5.16346849 -3 8 C-5.79472533 8.45200686 -8.14352949 8.23413693 -11 8 C-11 7.67 -11 7.34 -11 7 C-9.9275 6.773125 -8.855 6.54625 -7.75 6.3125 C-3.62781299 4.86973455 -2.35585477 3.58089925 0 0 Z " fill="#3ECFEF" transform="translate(432,336)"/>
<path d="M0 0 C0.66 0.33 1.32 0.66 2 1 C-0.97 3.64 -3.94 6.28 -7 9 C-7.66 8.67 -8.32 8.34 -9 8 C-6.03 5.36 -3.06 2.72 0 0 Z " fill="#0D0808" transform="translate(484,252)"/>
<path d="M0 0 C0.33 0.66 0.66 1.32 1 2 C-0.98 4.31 -2.96 6.62 -5 9 C-5.66 8.67 -6.32 8.34 -7 8 C-4.69 5.36 -2.38 2.72 0 0 Z " fill="#3CC5E4" transform="translate(861,534)"/>
<path d="M0 0 C2.31 0 4.62 0 7 0 C7 0.99 7 1.98 7 3 C5.02 3 3.04 3 1 3 C0.67 2.01 0.34 1.02 0 0 Z " fill="#13191D" transform="translate(411,341)"/>
<path d="M0 0 C0.66 0.33 1.32 0.66 2 1 C1.30058404 4.14737182 0.23921302 7.02588876 -1 10 C-2.46726798 6.18510326 -1.43336419 3.70988378 0 0 Z " fill="#3BC8E9" transform="translate(723,774)"/>
<path d="M0 0 C1 2 1 2 0.25 4.5625 C-1 7 -1 7 -4 8 C-2.87548273 5.0280615 -1.77706209 2.66559313 0 0 Z " fill="#3CC6E5" transform="translate(601,598)"/>
</svg>
