<svg width="24" height="24" viewBox="0 0 24 24" fill="none" xmlns="http://www.w3.org/2000/svg">
<g clip-path="url(#clip0_60803_73)">
<path d="M22.8981 9.25774L16.0907 5.32749L8.26862 20.5805L8.6089 21.6958L9.07773 22.2727L10.9915 23.3776L12.491 23.9371L13.545 23.6268L22.8981 9.25774Z" fill="black"/>
<path d="M22.2403 8.37676L17.4286 5.59875L18.7873 4.82392L20.1105 3.41604L22.6256 4.86818L22.15 6.76537L22.2403 8.37676Z" fill="black"/>
<path d="M22.6328 4.28758L20.5824 3.10377L21.3041 1.34864L23.7901 1.33605L24.1278 1.69811L22.6328 4.28758Z" fill="black"/>
<path d="M8.49992 13.6666C12.8722 13.6666 16.4166 12.2489 16.4166 10.5C16.4166 8.75108 12.8722 7.33331 8.49992 7.33331C4.12766 7.33331 0.583252 8.75108 0.583252 10.5C0.583252 12.2489 4.12766 13.6666 8.49992 13.6666Z" stroke="black" stroke-linecap="round" stroke-linejoin="round"/>
<path d="M5.75769 12.0833C7.94381 15.8698 10.9438 18.2305 12.4584 17.356C13.973 16.4816 13.4286 12.7031 11.2425 8.91664C9.05639 5.13016 6.05636 2.76949 4.54177 3.64394C3.02717 4.51839 3.57156 8.29683 5.75769 12.0833Z" stroke="black" stroke-linecap="round" stroke-linejoin="round"/>
<path d="M5.75752 8.91666C3.5714 12.7031 3.02701 16.4816 4.5416 17.356C6.0562 18.2305 9.05622 15.8698 11.2424 12.0833C13.4285 8.29685 13.9729 4.51841 12.4583 3.64396C10.9437 2.76951 7.94365 5.13018 5.75752 8.91666Z" stroke="black" stroke-linecap="round" stroke-linejoin="round"/>
<path d="M8.5 11.6875C9.15584 11.6875 9.6875 11.1558 9.6875 10.5C9.6875 9.84416 9.15584 9.3125 8.5 9.3125C7.84416 9.3125 7.3125 9.84416 7.3125 10.5C7.3125 11.1558 7.84416 11.6875 8.5 11.6875Z" fill="black"/>
</g>
<defs>
<clipPath id="clip0_60803_73">
<rect width="24" height="24" fill="white"/>
</clipPath>
</defs>
</svg>
